<?xml version="1.0" encoding="UTF-8"?>
<!DOCTYPE svg PUBLIC "-//W3C//DTD SVG 1.1//EN" "http://www.w3.org/Graphics/SVG/1.1/DTD/svg11.dtd">
<!-- Creator: CorelDRAW 2019 (64-Bit) -->
<svg xmlns="http://www.w3.org/2000/svg" xml:space="preserve" width="32.3817mm" height="10.9674mm" version="1.1" style="shape-rendering:geometricPrecision; text-rendering:geometricPrecision; image-rendering:optimizeQuality; fill-rule:evenodd; clip-rule:evenodd"
viewBox="0 0 3238.18 1096.74"
 xmlns:xlink="http://www.w3.org/1999/xlink">
 <defs>
  <style type="text/css">
   <![CDATA[
    .fil1 {fill:#F58634}
    .fil0 {fill:#ED3237}
    .fil2 {fill:#373435;fill-rule:nonzero}
   ]]>
  </style>
 </defs>
 <g id="Слой_x0020_1">
  <metadata id="CorelCorpID_0Corel-Layer"/>
  <g id="_2214099220048">
   <path class="fil0" d="M227.06 265.48l-227.06 132.12 0 -243.35 227.06 -132.11 0 243.34zm0 699.15l-227.06 132.11 0 -623.7 227.06 -132.11 0 623.7z"/>
   <path class="fil1" d="M535.04 248.36l-227.06 134.83 0 -248.36 227.06 -134.83 0 248.36zm0 713.55l-227.06 134.83 0 -636.55 227.06 -134.84 0 636.56z"/>
   <g>
    <path class="fil2" d="M1027.2 596.92l-139.24 0 0 -462.08 139.24 0 0 462.08zm653.88 0l-139.24 0 0 -267.55 -125.7 154.93 -11.04 0 -126.04 -154.93 0 267.55 -135.14 0 0 -462.08 126.15 0 142.09 173.37 142.64 -173.37 126.28 0 0 462.08zm516.68 -316.69c0,17.06 -2.96,33.78 -8.87,50.16 -5.81,16.26 -15.36,31.51 -28.44,45.62 -13.2,14.1 -30.83,25.59 -53.24,34.35 -22.3,8.76 -48.57,13.2 -78.84,13.2l-91.34 0 0 173.36 -139.24 0 0 -462.08 230.7 0c30.15,0 56.42,4.44 78.83,13.31 22.3,8.88 40.04,20.48 53.13,34.7 13.08,14.22 22.63,29.69 28.44,46.3 5.91,16.72 8.87,33.67 8.87,51.08zm-141.97 0.68c0,-22.07 -6.49,-37.09 -19.56,-45.16 -12.97,-8.08 -36.3,-12.18 -69.86,-12.18l-29.34 0 0 111.26 30.03 0c23.1,0 40.95,-1.48 53.35,-4.32 12.51,-2.85 21.5,-8.19 27.08,-16.04 5.57,-7.74 8.3,-19.01 8.3,-33.56zm567.42 316.01l-348.21 0 0 -462.08 342.51 0 0 92.83 -203.27 0 0 84.63 193.95 0 0 92.83 -193.95 0 0 98.97 208.97 0 0 92.82zm614.96 0l-178.93 0 -49.03 -57.9c-1.59,-2.28 -11.26,-14.1 -29.01,-35.49 -17.74,-21.39 -29.58,-36.07 -35.37,-43.8 -26.62,35.95 -48.36,64.39 -65.3,85.2l-42.32 51.99 -176.33 0 196.01 -240.37 -187.02 -221.71 178.03 0 31.63 38.68c18.2,22.52 40.04,50.62 65.3,84.18 24.22,-35.6 43.56,-62 58.01,-79.17l36.29 -43.69 174.73 0 -179.62 221.71 202.93 240.37z"/>
    <path class="fil2" d="M961.76 958.63l-73.8 0 0 -244.93 73.8 0 0 244.93zm327.79 0l-65.85 0 -126.99 -136.39 0 136.39 -73.08 0 0 -244.93 65.49 0 126.62 135.68 0 -135.68 73.81 0 0 244.93zm232.57 -71.15c0,15.32 -3.91,28.58 -11.75,39.8 -7.84,11.16 -18.76,19.72 -32.74,25.69 -14.06,5.97 -30.09,8.92 -48.25,8.92 -5.06,0 -11.27,-0.3 -18.63,-0.97 -7.35,-0.66 -17.12,-2.46 -29.3,-5.42 -12.24,-2.89 -24.91,-7.3 -38.11,-13.03l0 -60.06c12.36,7.67 24.54,14 36.48,19.06 12,5.07 24.78,7.6 38.47,7.6 12.6,0 20.75,-2.11 24.48,-6.27 3.68,-4.22 5.55,-8.14 5.55,-11.76 0,-6.63 -3.2,-12.18 -9.53,-16.7 -6.33,-4.53 -15.55,-9.23 -27.67,-14.05 -13.45,-5.67 -25.27,-11.82 -35.4,-18.46 -10.13,-6.68 -18.45,-15.01 -24.84,-25.02 -6.46,-10.01 -9.65,-21.83 -9.65,-35.52 0,-13.2 3.25,-25.14 9.7,-35.75 6.52,-10.68 16.41,-19.18 29.68,-25.57 13.32,-6.33 29.6,-9.52 48.77,-9.52 13.69,0 26.29,1.32 37.87,3.97 11.64,2.65 21.23,5.61 28.77,8.93 7.53,3.25 12.66,5.84 15.49,7.72l0 57.4c-10.01,-7.18 -21.1,-13.63 -33.4,-19.24 -12.31,-5.66 -25.45,-8.5 -39.5,-8.5 -9.17,0 -15.8,1.75 -19.96,5.31 -4.1,3.56 -6.15,7.9 -6.15,13.08 0,4.83 2.05,8.99 6.15,12.55 4.16,3.56 11.52,7.84 22.07,12.9 18.88,8.86 33.89,16.82 45.23,23.88 11.27,7.05 20.14,15.26 26.53,24.48 6.45,9.23 9.64,20.8 9.64,34.55zm305.3 -38.53c0,20.99 -3.92,38.83 -11.76,53.61 -7.84,14.83 -18.21,26.53 -31.12,35.09 -12.84,8.63 -26.77,14.83 -41.66,18.57 -14.9,3.8 -29.79,5.67 -44.63,5.67 -20.74,0 -40.88,-3.56 -60.53,-10.61 -19.6,-7.05 -36,-19.06 -49.21,-36.06 -13.2,-16.95 -19.77,-39.08 -19.77,-66.27l0 -135.25 73.8 0 0 116.13c0,16.17 2.35,29.49 7,40.04 4.64,10.55 11.09,18.27 19.41,23.16 8.27,4.89 18.09,7.35 29.37,7.35 10.85,0 20.44,-2.41 28.82,-7.23 8.32,-4.83 14.83,-12.48 19.47,-22.97 4.65,-10.5 7,-23.82 7,-39.98l0 -116.5 73.81 0 0 135.25zm295.04 109.68l-79.3 0 -19.29 -43.41c-7.06,-15.92 -13.45,-27.56 -19.12,-34.92 -5.61,-7.35 -11.15,-12.06 -16.52,-14.11 -5.36,-2.04 -12.24,-3.07 -20.74,-3.07l-8.32 0 0 95.51 -73.81 0 0 -244.93 125.61 0c20.25,0 36.9,4.1 49.8,12.36 12.97,8.26 22.31,18.27 28.04,30.09 5.73,11.76 8.56,22.97 8.56,33.59 0,12.36 -2.41,22.79 -7.17,31.35 -4.77,8.56 -9.77,14.78 -15.08,18.69 -5.3,3.87 -11.27,7.6 -17.84,11.1 7.89,4.58 14.4,10.07 19.53,16.34 5.13,6.33 12.06,19.06 20.93,38.23l24.72 53.18zm-100.34 -167.51c0,-11.33 -3.74,-19.23 -11.15,-23.69 -7.42,-4.47 -19.48,-6.7 -36.25,-6.7l-15.55 0 0 58.97 15.92 0c18.03,0 30.38,-1.99 37.02,-5.9 6.7,-3.99 10.01,-11.52 10.01,-22.68zm402.74 167.51l-75.62 0 -19.96 -49.56 -106.37 0 -20.31 49.56 -75.62 0 108.3 -244.93 81.64 0 107.94 244.93zm-112.52 -92.25l-35.88 -89.37 -36.24 89.37 72.12 0zm410.93 92.25l-65.84 0 -126.99 -136.39 0 136.39 -73.08 0 0 -244.93 65.48 0 126.63 135.68 0 -135.68 73.8 0 0 244.93zm280.64 -18.33c-10.13,5.31 -20.5,9.53 -31.05,12.72 -10.62,3.2 -21.29,5.5 -32.08,6.82 -10.8,1.39 -21.95,2.05 -33.47,2.05 -21.34,0 -40.46,-2.95 -57.35,-8.87 -16.88,-5.84 -31.53,-14.52 -43.95,-26.04 -12.42,-11.46 -21.77,-24.9 -27.92,-40.28 -6.21,-15.38 -9.29,-32.26 -9.29,-50.65 0,-21.05 3.68,-39.5 10.98,-55.36 7.3,-15.86 17.48,-29 30.63,-39.49 13.14,-10.5 28.1,-18.21 44.86,-23.22 16.76,-5 34.49,-7.53 53.07,-7.53 27.79,0 59.33,6.14 94.55,18.51l0 64.94c-12.12,-7.54 -24.12,-13.81 -35.95,-18.82 -11.87,-5 -25.8,-7.47 -41.78,-7.47 -14.29,0 -27.56,2.83 -39.92,8.5 -12.36,5.61 -22.31,13.68 -29.84,24.18 -7.55,10.49 -11.34,22.73 -11.34,36.78 0,12.37 3.31,23.7 9.89,34.01 6.57,10.31 15.74,18.45 27.49,24.54 11.7,6.09 24.9,9.11 39.62,9.11 11.94,0 23.15,-1.45 33.76,-4.35 10.62,-2.89 19.54,-6.08 26.78,-9.58 7.24,-3.56 14.65,-7.72 22.31,-12.61l0 62.11zm234.26 18.33l-184.57 0 0 -244.93 181.56 0 0 49.2 -107.75 0 0 44.87 102.81 0 0 49.2 -102.81 0 0 52.46 110.76 0 0 49.2z"/>
   </g>
  </g>
 </g>
</svg>
